{"asset":{"version":"2.0","generator":"Blockbench 4.3.1 glTF exporter"},"scenes":[{"nodes":[12],"name":"blockbench_export"}],"scene":0,"nodes":[{"name":"mirror_left","mesh":0},{"rotation":[0,-1,0,6.123233995736766e-17],"name":"mirror_right","mesh":1},{"name":"mirror_left","mesh":2},{"rotation":[0,-1,0,6.123233995736766e-17],"name":"mirror_right","mesh":3},{"name":"cube","mesh":4},{"name":"root","children":[4]},{"rotation":[0.5,-0.4999999999999999,0.5,0.5000000000000001],"name":"cylinder","mesh":5},{"rotation":[0.5,-0.4999999999999999,0.5,0.5000000000000001],"name":"cylinder","mesh":6},{"rotation":[0.5,0.4999999999999999,-0.5,0.5000000000000001],"name":"cylinder","mesh":7},{"rotation":[0.5,0.4999999999999999,-0.5,0.5000000000000001],"name":"cylinder","mesh":8},{"name":"wheel_right_front","children":[8,9]},{"name":"wheel_left_front","children":[6,7,10]},{"children":[0,1,2,3,5,11]}],"bufferViews":[{"buffer":0,"byteOffset":0,"byteLength":288,"target":34962,"byteStride":12},{"buffer":0,"byteOffset":288,"byteLength":288,"target":34962,"byteStride":12},{"buffer":0,"byteOffset":576,"byteLength":192,"target":34962,"byteStride":8},{"buffer":0,"byteOffset":768,"byteLength":72,"target":34963},{"buffer":0,"byteOffset":840,"byteLength":288,"target":34962,"byteStride":12},{"buffer":0,"byteOffset":1128,"byteLength":288,"target":34962,"byteStride":12},{"buffer":0,"byteOffset":1416,"byteLength":192,"target":34962,"byteStride":8},{"buffer":0,"byteOffset":1608,"byteLength":72,"target":34963},{"buffer":0,"byteOffset":1680,"byteLength":288,"target":34962,"byteStride":12},{"buffer":0,"byteOffset":1968,"byteLength":288,"target":34962,"byteStride":12},{"buffer":0,"byteOffset":2256,"byteLength":192,"target":34962,"byteStride":8},{"buffer":0,"byteOffset":2448,"byteLength":72,"target":34963},{"buffer":0,"byteOffset":2520,"byteLength":288,"target":34962,"byteStride":12},{"buffer":0,"byteOffset":2808,"byteLength":288,"target":34962,"byteStride":12},{"buffer":0,"byteOffset":3096,"byteLength":192,"target":34962,"byteStride":8},{"buffer":0,"byteOffset":3288,"byteLength":72,"target":34963},{"buffer":0,"byteOffset":3360,"byteLength":4704,"target":34962,"byteStride":12},{"buffer":0,"byteOffset":8064,"byteLength":4704,"target":34962,"byteStride":12},{"buffer":0,"byteOffset":12768,"byteLength":3136,"target":34962,"byteStride":8},{"buffer":0,"byteOffset":15904,"byteLength":1176,"target":34963},{"buffer":0,"byteOffset":17080,"byteLength":1728,"target":34962,"byteStride":12},{"buffer":0,"byteOffset":18808,"byteLength":1728,"target":34962,"byteStride":12},{"buffer":0,"byteOffset":20536,"byteLength":1152,"target":34962,"byteStride":8},{"buffer":0,"byteOffset":21688,"byteLength":384,"target":34963},{"buffer":0,"byteOffset":22072,"byteLength":1728,"target":34962,"byteStride":12},{"buffer":0,"byteOffset":23800,"byteLength":1728,"target":34962,"byteStride":12},{"buffer":0,"byteOffset":25528,"byteLength":1152,"target":34962,"byteStride":8},{"buffer":0,"byteOffset":26680,"byteLength":384,"target":34963},{"buffer":0,"byteOffset":27064,"byteLength":1728,"target":34962,"byteStride":12},{"buffer":0,"byteOffset":28792,"byteLength":1728,"target":34962,"byteStride":12},{"buffer":0,"byteOffset":30520,"byteLength":1152,"target":34962,"byteStride":8},{"buffer":0,"byteOffset":31672,"byteLength":384,"target":34963},{"buffer":0,"byteOffset":32056,"byteLength":1728,"target":34962,"byteStride":12},{"buffer":0,"byteOffset":33784,"byteLength":1728,"target":34962,"byteStride":12},{"buffer":0,"byteOffset":35512,"byteLength":1152,"target":34962,"byteStride":8},{"buffer":0,"byteOffset":36664,"byteLength":384,"target":34963}],"buffers":[{"byteLength":37048,"uri":"data:application/octet-stream;base64,"}],"accessors":[{"bufferView":0,"componentType":5126,"count":24,"max":[0.65625,0.5,0.21875],"min":[0.46875,0.4375,0.15625],"type":"VEC3"},{"bufferView":1,"componentType":5126,"count":24,"max":[1,0,0.9486833214759827],"min":[-1,0,-1],"type":"VEC3"},{"bufferView":2,"componentType":5126,"count":24,"max":[0.875,1],"min":[0,0.25],"type":"VEC2"},{"bufferView":3,"componentType":5123,"count":36,"max":[23],"min":[0],"type":"SCALAR"},{"bufferView":4,"componentType":5126,"count":24,"max":[0.71875,0.5625,-0.09375],"min":[0.53125,0.4375,-0.21875],"type":"VEC3"},{"bufferView":5,"componentType":5126,"count":24,"max":[1,1,1],"min":[-1,-1,-0.9486833214759827],"type":"VEC3"},{"bufferView":6,"componentType":5126,"count":24,"max":[0.6875,1],"min":[0,0.0625],"type":"VEC2"},{"bufferView":7,"componentType":5123,"count":36,"max":[23],"min":[0],"type":"SCALAR"},{"bufferView":8,"componentType":5126,"count":24,"max":[0.71875,0.5625,0.21875],"min":[0.53125,0.4375,0.09375],"type":"VEC3"},{"bufferView":9,"componentType":5126,"count":24,"max":[1,1,0.9486833214759827],"min":[-1,-1,-1],"type":"VEC3"},{"bufferView":10,"componentType":5126,"count":24,"max":[0.625,1],"min":[0,0.125],"type":"VEC2"},{"bufferView":11,"componentType":5123,"count":36,"max":[23],"min":[0],"type":"SCALAR"},{"bufferView":12,"componentType":5126,"count":24,"max":[0.65625,0.5,-0.15625],"min":[0.46875,0.4375,-0.21875],"type":"VEC3"},{"bufferView":13,"componentType":5126,"count":24,"max":[1,0,1],"min":[-1,0,-0.9486833214759827],"type":"VEC3"},{"bufferView":14,"componentType":5126,"count":24,"max":[0.9375,1],"min":[0,0.125],"type":"VEC2"},{"bufferView":15,"componentType":5123,"count":36,"max":[23],"min":[0],"type":"SCALAR"},{"bufferView":16,"componentType":5126,"count":392,"max":[0.5,0.75,0.8125],"min":[-0.5,0,-1.1875],"type":"VEC3"},{"bufferView":17,"componentType":5126,"count":392,"max":[1,1,1],"min":[-1,-1,-1],"type":"VEC3"},{"bufferView":18,"componentType":5126,"count":392,"max":[0.875,1],"min":[0,0.125],"type":"VEC2"},{"bufferView":19,"componentType":5123,"count":588,"max":[391],"min":[0],"type":"SCALAR"},{"bufferView":20,"componentType":5126,"count":144,"max":[0.53125,-0.3125,0.21875],"min":[0.09375,-0.5,-0.21875],"type":"VEC3"},{"bufferView":21,"componentType":5126,"count":144,"max":[0.9238795042037964,1,0.9238795042037964],"min":[-0.9238795042037964,-1,-0.9238795042037964],"type":"VEC3"},{"bufferView":22,"componentType":5126,"count":144,"max":[0.5625,1],"min":[0,0.46875],"type":"VEC2"},{"bufferView":23,"componentType":5123,"count":192,"max":[143],"min":[0],"type":"SCALAR"},{"bufferView":24,"componentType":5126,"count":144,"max":[-0.40625,-0.3125,0.21875],"min":[-0.84375,-0.5,-0.21875],"type":"VEC3"},{"bufferView":25,"componentType":5126,"count":144,"max":[0.9238795042037964,1,0.9238795042037964],"min":[-0.9238795042037964,-1,-0.9238795042037964],"type":"VEC3"},{"bufferView":26,"componentType":5126,"count":144,"max":[0.578125,1],"min":[0,0.4375],"type":"VEC2"},{"bufferView":27,"componentType":5123,"count":192,"max":[143],"min":[0],"type":"SCALAR"},{"bufferView":28,"componentType":5126,"count":144,"max":[0.84375,-0.3125,0.21875],"min":[0.40625,-0.5,-0.21875],"type":"VEC3"},{"bufferView":29,"componentType":5126,"count":144,"max":[0.9238795042037964,1,0.9238795042037964],"min":[-0.9238795042037964,-1,-0.9238795042037964],"type":"VEC3"},{"bufferView":30,"componentType":5126,"count":144,"max":[0.578125,1],"min":[0,0.4375],"type":"VEC2"},{"bufferView":31,"componentType":5123,"count":192,"max":[143],"min":[0],"type":"SCALAR"},{"bufferView":32,"componentType":5126,"count":144,"max":[-0.09375,-0.3125,0.21875],"min":[-0.53125,-0.5,-0.21875],"type":"VEC3"},{"bufferView":33,"componentType":5126,"count":144,"max":[0.9238795042037964,1,0.9238795042037964],"min":[-0.9238795042037964,-1,-0.9238795042037964],"type":"VEC3"},{"bufferView":34,"componentType":5126,"count":144,"max":[0.59375,1],"min":[0,0.421875],"type":"VEC2"},{"bufferView":35,"componentType":5123,"count":192,"max":[143],"min":[0],"type":"SCALAR"}],"materials":[{"pbrMetallicRoughness":{"metallicFactor":0,"roughnessFactor":1,"baseColorTexture":{"index":0}},"alphaMode":"MASK","alphaCutoff":0.05,"doubleSided":true},{"pbrMetallicRoughness":{"metallicFactor":0,"roughnessFactor":1,"baseColorTexture":{"index":1}},"alphaMode":"MASK","alphaCutoff":0.05,"doubleSided":true},{"pbrMetallicRoughness":{"metallicFactor":0,"roughnessFactor":1,"baseColorTexture":{"index":2}},"alphaMode":"MASK","alphaCutoff":0.05,"doubleSided":true}],"textures":[{"sampler":0,"source":0,"name":"mirrors"},{"sampler":1,"source":1,"name":"body"},{"sampler":2,"source":2,"name":"wheels"}],"samplers":[{"magFilter":9728,"minFilter":9728,"wrapS":33071,"wrapT":33071},{"magFilter":9728,"minFilter":9728,"wrapS":33071,"wrapT":33071},{"magFilter":9728,"minFilter":9728,"wrapS":33071,"wrapT":33071}],"images":[{"mimeType":"image/png","uri":"data:image/png;base64,"},{"mimeType":"image/png","uri":"data:image/png;base64,"},{"mimeType":"image/png","uri":"data:image/png;base64,"}],"meshes":[{"primitives":[{"mode":4,"attributes":{"POSITION":0,"NORMAL":1,"TEXCOORD_0":2},"indices":3,"material":0}]},{"primitives":[{"mode":4,"attributes":{"POSITION":4,"NORMAL":5,"TEXCOORD_0":6},"indices":7,"material":0}]},{"primitives":[{"mode":4,"attributes":{"POSITION":8,"NORMAL":9,"TEXCOORD_0":10},"indices":11,"material":0}]},{"primitives":[{"mode":4,"attributes":{"POSITION":12,"NORMAL":13,"TEXCOORD_0":14},"indices":15,"material":0}]},{"primitives":[{"mode":4,"attributes":{"POSITION":16,"NORMAL":17,"TEXCOORD_0":18},"indices":19,"material":1}]},{"primitives":[{"mode":4,"attributes":{"POSITION":20,"NORMAL":21,"TEXCOORD_0":22},"indices":23,"material":2}]},{"primitives":[{"mode":4,"attributes":{"POSITION":24,"NORMAL":25,"TEXCOORD_0":26},"indices":27,"material":2}]},{"primitives":[{"mode":4,"attributes":{"POSITION":28,"NORMAL":29,"TEXCOORD_0":30},"indices":31,"material":2}]},{"primitives":[{"mode":4,"attributes":{"POSITION":32,"NORMAL":33,"TEXCOORD_0":34},"indices":35,"material":2}]}]}